# xmcd CD database file generated by Grip 2.95
# 
# Track frame offsets:
#       150
#       14425
#       38720
#       75605
#       111875
#       129157
#       182927
#       205425
#       216402
#       238107
#       260107
# 
# Disc length: 3892 seconds
# 
# Revision: 3
# Processed by: cddbd v1.4b41PL1 Copyright (c) Steve Scherf et al.
# Submitted via: Grip 2.95
# 
DISCID=a00f320b
DTITLE=Stevie Ray Vaughan and Double Trouble - Chicago Blues Festival
DYEAR=1900
DGENRE=
TTITLE0=Scuttle Buttin'
TTITLE1=Say What!
TTITLE2=Ain't Gonna Give Up On Love
TTITLE3=Voodoo Chile (Slight Return)
TTITLE4=Mary Had A Little Lamb
TTITLE5=Texas Flood
TTITLE6=Come On
TTITLE7=Testify
TTITLE8=Say What (Saturday Night Live)
TTITLE9=Change It (Saturday Night Live)
TTITLE10=The Sky Is Crying (BB King and Friends TV Special)
EXTD=
EXTT0=
EXTT1=
EXTT2=
EXTT3=
EXTT4=
EXTT5=
EXTT6=
EXTT7=
EXTT8=
EXTT9=
EXTT10=
PLAYORDER=
